<?xml version="1.0" encoding="utf-8"?>
<!-- Generator: Adobe Illustrator 16.0.0, SVG Export Plug-In . SVG Version: 6.00 Build 0)  -->
<!DOCTYPE svg PUBLIC "-//W3C//DTD SVG 1.1//EN" "http://www.w3.org/Graphics/SVG/1.1/DTD/svg11.dtd">
<svg version="1.1" xmlns="http://www.w3.org/2000/svg" xmlns:xlink="http://www.w3.org/1999/xlink" x="0px" y="0px" width="195px"
	 height="70px" viewBox="0 0 195 70" enable-background="new 0 0 195 70" xml:space="preserve">
<g id="Layer_1">
	<path fill="#FFFFFF" d="M94.222,16.298v-5.075c0-0.862-0.673-1.562-1.521-1.611V5.976c0-0.688-0.433-1.275-1.036-1.508V3.505
		c0-0.894-0.726-1.616-1.618-1.616c-0.892,0-1.614,0.723-1.614,1.616v0.959c-0.615,0.229-1.053,0.818-1.053,1.512v3.636
		c-0.848,0.049-1.521,0.749-1.521,1.611v5.075"/>
	<g>
		<g>
			<path fill="#D1D9CB" d="M9.966,32.722c0.734-0.005,2.182,0.222,2.182,0.222l0.385,0.467l-1.008,0.854l0.464,0.644L7.05,34.924
				l-1.583-1.029l0.364-0.983L9.966,32.722z"/>
		</g>
		<g>
			<g>
				<polygon fill="#D1D9CB" points="8.792,29.982 8.655,28.643 9.071,27.491 5.398,27.312 4.773,28.89 5.259,30.163 6.644,29.982 
									"/>
			</g>
			<g>
				<path fill="#B1B1B1" d="M14.578,26.519c-0.258,0-3.826-0.129-3.826-0.129l-0.712,0.972l0.192,0.975l-0.126,0.648l4.472-0.066
					V26.519z"/>
			</g>
			<g>
				<polygon fill="#DBDBBA" points="10.811,29.638 9.708,30.386 9.708,31.556 13.576,31.886 18.832,31.556 18.692,30.052 
					17.586,29.301 				"/>
			</g>
		</g>
	</g>
	<g>
		<g>
			<polygon fill="#D1D9CB" points="113.217,19.399 113.066,18.425 113.53,17.581 109.44,17.449 108.747,18.603 109.285,19.531 
				110.829,19.399 			"/>
		</g>
		<g>
			<path fill="#B1B1B1" d="M117.074,14.259c-0.267,0-3.924-0.132-3.924-0.132l-0.73,0.997l0.2,0.996l-0.135,0.664l4.589-0.063
				V14.259z"/>
		</g>
		<g>
			<path fill="#B1B1B1" d="M119.122,27.225c-0.267,0-3.927-0.136-3.927-0.136l-0.73,0.999l0.203,0.999l-0.135,0.665l4.589-0.066
				V27.225z"/>
		</g>
		<g>
			<path fill="#D1D9CB" d="M121.911,20.977c0.746-0.008,2.231,0.227,2.231,0.227l0.396,0.475l-1.029,0.878l0.473,0.658l-5.062,0.015
				l-1.617-1.053l0.369-1.008L121.911,20.977z"/>
		</g>
		<g>
			<polygon fill="#B7BDB1" points="114.327,19.236 114.401,18.253 114.665,17.978 121.607,17.757 121.088,18.798 121.238,19.293 			
				"/>
		</g>
		<g>
			<polygon fill="#B7BDB1" points="106.71,22.436 106.805,21.174 107.14,20.824 116.04,20.542 115.378,21.875 115.567,22.508 			"/>
		</g>
		<g>
			<polygon fill="#B7BDB1" points="118.649,16.294 118.75,15.032 119.082,14.678 127.982,14.4 127.317,15.736 127.51,16.37 			"/>
		</g>
		<g>
			<polygon fill="#DBDBBA" points="118.992,26.189 119.09,24.924 119.423,24.574 128.322,24.294 127.66,25.631 127.851,26.263 			
				"/>
		</g>
		<g>
			<polygon fill="#DBDBBA" points="117,23.569 117.565,24.2 117.565,25.184 115.6,25.463 112.932,25.184 113.003,23.917 
				113.564,23.287 			"/>
		</g>
	</g>
	<g>
		<g>
			<polygon fill="#B1B1B1" points="101.614,56.14 101.649,55.298 101.794,54.456 98.952,54.393 98.454,55.181 98.488,56.202 			"/>
		</g>
		<g>
			<polygon fill="#DBDBBA" points="97.681,56.531 95.425,56.346 92.868,56.515 92.456,55.09 92.646,54.099 96.631,54.18 
				97.775,54.116 			"/>
		</g>
		<g>
			<polygon fill="#B7BDB1" points="103.237,56.663 103.288,54.846 103.462,54.34 108.116,53.937 107.766,55.861 107.868,56.768 			
				"/>
		</g>
	</g>
	<g>
		<g>
			<polygon fill="#B1B1B1" points="101.642,36.238 101.676,35.502 101.818,34.767 98.977,34.713 98.48,35.398 98.515,36.291 			"/>
		</g>
		<g>
			<polygon fill="#DBDBBA" points="107.403,36.72 105.332,36.27 102.721,36.27 102.771,35.01 102.81,34.287 106.617,34.627 
				107.718,34.56 			"/>
		</g>
		<g>
			<polygon fill="#B7BDB1" points="93.485,36.693 93.53,35.106 93.686,34.667 97.828,34.316 97.586,35.655 97.676,36.449 			"/>
		</g>
	</g>
	<g>
		<g>
			<polygon fill="#B1B1B1" points="133.392,35.28 133.452,34.419 133.689,33.558 128.913,33.496 128.08,34.295 128.138,35.345 			
				"/>
		</g>
		<g>
			<polygon fill="#B7BDB1" points="135.021,35.39 135.096,33.734 135.354,33.278 142.257,32.91 141.739,34.658 141.888,35.482 			
				"/>
		</g>
		<g>
			<g>
				<polygon fill="#B1B1B1" points="158.922,35.28 158.975,34.419 159.199,33.558 154.727,33.496 153.946,34.295 154.001,35.345 
									"/>
			</g>
			<g>
				<polygon fill="#DBDBBA" points="152.357,35.815 148.302,35.634 144.094,35.567 143.365,33.841 143.7,32.637 150.399,33.391 
					152.407,33.312 				"/>
			</g>
			<g>
				<polygon fill="#B7BDB1" points="161.249,35.39 161.331,33.734 161.616,33.278 169.205,32.91 168.638,34.658 168.799,35.482 				
					"/>
			</g>
		</g>
	</g>
	<g>
		<g>
			<polygon fill="#DBDBBA" points="190.538,62.635 190.309,61.18 191,59.918 184.886,59.715 183.844,61.443 184.653,62.834 
				186.96,62.635 			"/>
		</g>
		<g>
			<path fill="#D1D9CB" d="M184.712,63.218c0.854-0.009,2.549,0.259,2.549,0.259l0.454,0.543l-1.18,1.002l0.544,0.752l-5.784,0.02
				l-1.85-1.204l0.425-1.149L184.712,63.218z"/>
		</g>
		<g>
			<polygon fill="#B7BDB1" points="176.698,58.26 176.81,56.815 177.189,56.413 187.363,56.095 186.604,57.617 186.82,58.345 			"/>
		</g>
		<g>
			<polygon fill="#DBDBBA" points="188.461,52.929 189.1,53.649 189.1,54.771 186.857,55.09 183.807,54.771 183.892,53.326 
				184.529,52.604 			"/>
		</g>
	</g>
	<g>
		<g>
			<polygon fill="#DBDBBA" points="76.432,64.318 76.203,62.86 76.891,61.599 70.78,61.398 69.738,63.124 70.548,64.515 
				72.854,64.318 			"/>
		</g>
		<g>
			<path fill="#D1D9CB" d="M70.604,64.901c0.857-0.01,2.551,0.259,2.551,0.259l0.454,0.541l-1.18,1.001l0.543,0.755l-5.784,0.02
				l-1.85-1.205l0.422-1.151L70.604,64.901z"/>
		</g>
		<g>
			<polygon fill="#B7BDB1" points="62.593,59.94 62.704,58.499 63.083,58.097 73.258,57.775 72.495,59.301 72.714,60.025 			"/>
		</g>
		<g>
			<polygon fill="#DBDBBA" points="74.355,54.608 74.994,55.33 74.994,56.452 72.749,56.771 69.701,56.452 69.783,55.008 
				70.424,54.285 			"/>
		</g>
	</g>
	<g>
		<g>
			<polygon fill="#B1B1B1" points="29.104,35.589 29.143,34.824 29.304,34.058 26.072,34.005 25.507,34.714 25.547,35.643 			"/>
		</g>
		<g>
			<polygon fill="#B7BDB1" points="30.114,35.683 30.159,34.218 30.31,33.811 34.315,33.486 34.017,35.035 34.101,35.765 			"/>
		</g>
		<g>
			<g>
				<polygon fill="#B1B1B1" points="44.616,35.589 44.642,34.824 44.761,34.058 42.42,34.005 42.009,34.714 42.035,35.643 				"/>
			</g>
			<g>
				<polygon fill="#DBDBBA" points="41.12,36.069 38.576,35.845 35.843,35.84 35.381,34.312 35.595,33.245 39.84,33.915 
					41.117,33.844 				"/>
			</g>
			<g>
				<polygon fill="#B7BDB1" points="46.17,35.683 46.22,34.218 46.402,33.811 51.268,33.486 50.904,35.035 51.009,35.765 				"/>
			</g>
		</g>
	</g>
	<g>
		<path fill="#575757" d="M88.073,11.048l-0.393-0.077l0.039,2.699h1.449c0-0.157,0.079-2.309,0.079-2.309l-0.589-0.43
			L88.073,11.048z"/>
		<path fill="#575757" d="M91.208,11.048l-0.393-0.077l0.042,2.699h1.445c0-0.157,0.079-2.309,0.079-2.309l-0.588-0.43
			L91.208,11.048z"/>
		<path fill="#575757" d="M90.957,5.86l-0.588-0.43l-0.586,0.117L89.393,5.47L89.43,8.17h1.448
			C90.878,8.013,90.957,5.86,90.957,5.86z"/>
		<path fill="#575757" d="M64.528,45.242c-2.799-6.613-9.172-7.159-9.236-7.163c-0.106-0.008-0.22,0.029-0.301,0.105
			c-0.082,0.075-0.128,0.182-0.128,0.293v16.422c0,0.221,0.179,0.4,0.4,0.4h10.649c0.008,0,0.014,0,0.02,0c0.221,0,0.4-0.18,0.4-0.4
			c0-0.052-0.01-0.102-0.028-0.147C66.248,53.832,65.863,48.389,64.528,45.242z M55.663,54.499V38.937
			c1.41,0.246,5.931,1.425,8.129,6.618c1.164,2.743,1.588,7.508,1.693,8.944H55.663z"/>
		<path fill="#575757" d="M21.449,38.079c-0.064,0.004-6.438,0.55-9.236,7.163c-1.428,3.372-1.767,9.382-1.781,9.636
			c-0.006,0.109,0.034,0.217,0.109,0.297c0.076,0.079,0.181,0.125,0.291,0.125h10.646c0.221,0,0.4-0.18,0.4-0.4V38.478
			c0-0.111-0.046-0.218-0.128-0.293C21.668,38.108,21.558,38.067,21.449,38.079z M21.078,54.499h-9.819
			c0.105-1.437,0.529-6.201,1.69-8.944c2.192-5.179,6.717-6.368,8.129-6.617V54.499z"/>
		<path fill="#575757" d="M192.954,7.971c-0.635-0.707-1.576-1.065-2.799-1.065h-81.911c-1.223,0-2.164,0.358-2.799,1.065
			c-0.963,1.073-0.817,2.539-0.813,2.547v5.28h-9.91v-4.575c0-0.956-0.638-1.771-1.521-2.029V5.976c0-0.749-0.405-1.441-1.036-1.818
			V3.505c0-1.167-0.95-2.116-2.118-2.116c-1.166,0-2.114,0.949-2.114,2.116V4.15c-0.641,0.375-1.053,1.07-1.053,1.826v3.218
			c-0.882,0.257-1.521,1.073-1.521,2.029v4.575h-3.686c-1.223,0-2.164,0.358-2.799,1.065c-0.963,1.073-0.817,2.539-0.813,2.547
			v2.795H5.191c-1.223,0-2.164,0.358-2.799,1.065c-0.963,1.073-0.817,2.539-0.813,2.547v44.271h1L2.576,25.765
			c-0.001-0.011-0.097-1.093,0.561-1.826c0.437-0.486,1.128-0.733,2.055-0.733h72.87V70h1l-0.002-50.641
			c-0.001-0.011-0.101-1.098,0.565-1.833c0.437-0.482,1.126-0.727,2.049-0.727h23.958l-0.003-6.332
			c-0.001-0.011-0.101-1.098,0.566-1.833c0.437-0.482,1.126-0.727,2.049-0.727h81.911c0.923,0,1.612,0.245,2.049,0.727
			c0.667,0.736,0.567,1.823,0.563,1.885V70h1l-0.003-59.428C193.771,10.51,193.917,9.044,192.954,7.971z M86.359,11.223
			c0-0.589,0.461-1.078,1.049-1.112l0.471-0.027V5.976c0-0.469,0.286-0.878,0.728-1.043l0.325-0.121V3.505
			c0-0.616,0.5-1.116,1.114-1.116c0.617,0,1.118,0.5,1.118,1.116v1.306l0.32,0.124c0.428,0.165,0.716,0.583,0.716,1.041v4.108
			l0.471,0.027c0.588,0.034,1.049,0.522,1.049,1.112v4.575h-7.362V11.223z"/>
		<g>
			<path fill="#575757" d="M104.31,53.169l-8.268-0.002c-0.268-0.001-0.686-0.037-1.064-0.299c-0.332-0.229-0.728-0.697-0.728-1.618
				V39.497c0-1.417,0.929-1.919,1.724-1.919l8.268,0.002c0.002,0,0.004,0,0.006,0c0.861,0,1.785,0.504,1.785,1.917V51.25
				C106.033,52.667,105.104,53.169,104.31,53.169z M104.242,52.167l0.067,0.502v-0.5c0.48,0,0.724-0.309,0.724-0.919V39.497
				c0-0.61-0.243-0.919-0.724-0.919l-8.268,0.002c-0.002,0-0.004,0-0.006,0c-0.543,0-0.785,0.31-0.785,0.917V51.25
				c0,0.392,0.1,0.66,0.297,0.797c0.165,0.113,0.369,0.122,0.427,0.122L104.242,52.167z"/>
		</g>
		<g>
			<rect x="148.492" y="37.628" fill="#575757" width="1" height="32.372"/>
		</g>
		<g>
			<path fill="#575757" d="M167.011,70h-1V40.133c0-0.662-0.164-1.149-0.486-1.447c-0.438-0.403-1.059-0.359-1.068-0.357
				l-30.884,0.002c-0.051-0.007-0.674-0.048-1.112,0.355c-0.322,0.298-0.486,0.785-0.486,1.447V70h-1V40.133
				c0-0.961,0.276-1.698,0.821-2.193c0.77-0.699,1.782-0.613,1.825-0.607l30.792-0.002c-0.006,0,1.007-0.091,1.777,0.609
				c0.545,0.495,0.821,1.232,0.821,2.193V70z"/>
		</g>
		<g>
			<path fill="#575757" d="M49.486,70h-1V40.133c0-0.662-0.164-1.149-0.486-1.447c-0.438-0.403-1.063-0.359-1.068-0.357
				L30.731,38.33c-0.051-0.007-0.674-0.048-1.112,0.355c-0.323,0.298-0.486,0.785-0.486,1.447V70h-1V40.133
				c0-0.961,0.276-1.698,0.821-2.193c0.77-0.699,1.781-0.613,1.826-0.607l16.108-0.002c-0.004,0.001,1.007-0.09,1.778,0.609
				c0.544,0.495,0.821,1.232,0.821,2.193V70z"/>
		</g>
	</g>
	<g>
		<g>
			<polygon fill="#B7BDB1" points="85.77,5.208 85.859,4.274 86.152,4.016 94.11,4.005 93.944,4.715 93.887,5.371 			"/>
		</g>
	</g>
	<g>
		<g>
			<polygon fill="#B7BDB1" points="84.269,10.263 84.393,9.327 84.791,9.07 95.62,8.863 95.34,9.604 95.396,10.37 			"/>
		</g>
	</g>
</g>
<g id="Layer_2">
</g>
</svg>
