<?xml version="1.0" encoding="utf-8"?>
<!-- Generator: Adobe Illustrator 16.0.0, SVG Export Plug-In . SVG Version: 6.00 Build 0)  -->
<!DOCTYPE svg PUBLIC "-//W3C//DTD SVG 1.1//EN" "http://www.w3.org/Graphics/SVG/1.1/DTD/svg11.dtd">
<svg version="1.1" xmlns="http://www.w3.org/2000/svg" xmlns:xlink="http://www.w3.org/1999/xlink" x="0px" y="0px" width="130px"
	 height="100px" viewBox="0 0 130 100" enable-background="new 0 0 130 100" xml:space="preserve">
<g id="Layer_1">
	
		<path fill="#FFFFFF" stroke="#575757" stroke-width="0.25" stroke-linecap="round" stroke-linejoin="round" stroke-miterlimit="10" d="
		M64.995,97.619L123,68.646c0-0.002,0-59.265,0-59.265c0-3.867-3.135-7.001-7.001-7.001H14.001C10.134,2.381,7,5.515,7,9.382
		c0,0,0,59.263,0,59.265L64.995,97.619h0.014"/>
	<path fill="#FFFFFF" d="M63.214,17.73v-2.643c0-0.447-0.352-0.811-0.791-0.838v-1.891c0-0.357-0.227-0.664-0.539-0.785v-0.499
		c0-0.465-0.377-0.84-0.842-0.84s-0.84,0.375-0.84,0.84v0.495c-0.32,0.121-0.549,0.428-0.549,0.789v1.891
		c-0.441,0.027-0.791,0.391-0.791,0.838v2.643"/>
	<g>
		<g>
			<path fill="#D1D9CB" d="M19.383,26.274c0.381-0.004,1.134,0.113,1.134,0.113l0.201,0.244l-0.523,0.445l0.24,0.332l-2.57,0.012
				l-0.824-0.537l0.191-0.512L19.383,26.274z"/>
		</g>
		<g>
			<g>
				<polygon fill="#D1D9CB" points="18.77,24.847 18.702,24.151 18.917,23.552 17.006,23.458 16.68,24.28 16.934,24.942 
					17.655,24.847 				"/>
			</g>
			<g>
				<path fill="#B1B1B1" d="M21.781,23.046c-0.133,0-1.988-0.068-1.988-0.068l-0.371,0.506l0.1,0.508l-0.068,0.34l2.328-0.035
					V23.046z"/>
			</g>
			<g>
				<polygon fill="#DBDBBA" points="19.821,24.669 19.249,25.058 19.249,25.665 21.26,25.839 23.994,25.665 23.922,24.884 
					23.348,24.493 				"/>
			</g>
		</g>
	</g>
	<g>
		<g>
			<polygon fill="#D1D9CB" points="73.096,19.342 73.018,18.836 73.258,18.398 71.129,18.328 70.77,18.928 71.051,19.41 
				71.854,19.342 			"/>
		</g>
		<g>
			<path fill="#B1B1B1" d="M75.104,16.668c-0.141,0-2.047-0.066-2.047-0.066l-0.375,0.518l0.102,0.518l-0.07,0.346l2.391-0.033
				V16.668z"/>
		</g>
		<g>
			<path fill="#B1B1B1" d="M76.166,23.413c-0.137,0-2.041-0.07-2.041-0.07l-0.381,0.52l0.107,0.52l-0.072,0.346l2.387-0.035V23.413z
				"/>
		</g>
		<g>
			<path fill="#D1D9CB" d="M77.619,20.163c0.386-0.006,1.159,0.117,1.159,0.117l0.207,0.248l-0.539,0.457l0.248,0.342l-2.632,0.008
				l-0.842-0.549l0.193-0.525L77.619,20.163z"/>
		</g>
		<g>
			<polygon fill="#B7BDB1" points="73.676,19.258 73.713,18.746 73.852,18.602 77.463,18.488 77.191,19.029 77.27,19.285 			"/>
		</g>
		<g>
			<polygon fill="#B7BDB1" points="69.709,20.921 69.756,20.265 69.932,20.083 74.564,19.937 74.221,20.63 74.32,20.96 			"/>
		</g>
		<g>
			<polygon fill="#B7BDB1" points="75.922,17.727 75.973,17.07 76.146,16.887 80.776,16.74 80.431,17.438 80.528,17.766 			"/>
		</g>
		<g>
			<polygon fill="#DBDBBA" points="76.1,22.874 76.15,22.214 76.324,22.036 80.952,21.89 80.608,22.583 80.706,22.915 			"/>
		</g>
		<g>
			<polygon fill="#DBDBBA" points="75.063,21.511 75.357,21.841 75.357,22.353 74.334,22.497 72.945,22.353 72.982,21.694 
				73.275,21.366 			"/>
		</g>
	</g>
	<g>
		<g>
			<polygon fill="#B1B1B1" points="67.06,38.454 67.077,38.017 67.151,37.579 65.675,37.544 65.415,37.954 65.433,38.489 			"/>
		</g>
		<g>
			<polygon fill="#DBDBBA" points="65.015,38.659 63.839,38.562 62.509,38.649 62.294,37.907 62.394,37.394 64.468,37.435 
				65.063,37.401 			"/>
		</g>
		<g>
			<polygon fill="#B7BDB1" points="67.901,38.728 67.929,37.78 68.022,37.519 70.439,37.308 70.258,38.31 70.314,38.782 			"/>
		</g>
	</g>
	<g>
		<g>
			<polygon fill="#B1B1B1" points="67.073,28.104 67.093,27.72 67.167,27.337 65.687,27.31 65.429,27.665 65.446,28.13 			"/>
		</g>
		<g>
			<polygon fill="#DBDBBA" points="70.072,28.352 68.993,28.118 67.634,28.118 67.659,27.462 67.683,27.089 69.658,27.265 
				70.236,27.229 			"/>
		</g>
		<g>
			<polygon fill="#B7BDB1" points="62.832,28.338 62.854,27.513 62.935,27.284 65.089,27.104 64.964,27.8 65.011,28.212 			"/>
		</g>
	</g>
	<g>
		<g>
			<polygon fill="#B1B1B1" points="83.591,27.604 83.622,27.155 83.745,26.706 81.259,26.675 80.827,27.091 80.856,27.638 			"/>
		</g>
		<g>
			<polygon fill="#B7BDB1" points="84.438,27.661 84.478,26.8 84.612,26.562 88.203,26.372 87.932,27.28 88.01,27.708 			"/>
		</g>
		<g>
			<g>
				<polygon fill="#B1B1B1" points="96.87,27.604 96.897,27.155 97.015,26.706 94.688,26.675 94.283,27.091 94.311,27.638 				"/>
			</g>
			<g>
				<polygon fill="#DBDBBA" points="93.459,27.882 91.35,27.788 89.16,27.753 88.777,26.854 88.953,26.229 92.438,26.62 
					93.482,26.581 				"/>
			</g>
			<g>
				<polygon fill="#B7BDB1" points="98.081,27.661 98.124,26.8 98.272,26.562 102.222,26.372 101.927,27.28 102.011,27.708 				"/>
			</g>
		</g>
	</g>
	<g>
		<g>
			<polygon fill="#DBDBBA" points="113.319,41.833 113.2,41.077 113.558,40.421 110.377,40.315 109.836,41.214 110.258,41.938 
				111.457,41.833 			"/>
		</g>
		<g>
			<path fill="#D1D9CB" d="M110.287,42.136c0.445-0.002,1.326,0.137,1.326,0.137l0.236,0.283l-0.615,0.52l0.287,0.391l-3.012,0.012
				l-0.961-0.627l0.219-0.6L110.287,42.136z"/>
		</g>
		<g>
			<polygon fill="#B7BDB1" points="106.119,39.558 106.176,38.806 106.373,38.597 111.67,38.431 111.271,39.222 111.385,39.603 			
				"/>
		</g>
		<g>
			<polygon fill="#DBDBBA" points="112.237,36.785 112.569,37.159 112.569,37.741 111.404,37.907 109.816,37.741 109.863,36.991 
				110.195,36.617 			"/>
		</g>
	</g>
	<g>
		<g>
			<polygon fill="#DBDBBA" points="53.958,42.71 53.84,41.95 54.2,41.296 51.018,41.19 50.477,42.089 50.899,42.812 52.098,42.71 
							"/>
		</g>
		<g>
			<path fill="#D1D9CB" d="M50.928,43.013c0.445-0.004,1.326,0.135,1.326,0.135l0.236,0.281l-0.613,0.52l0.283,0.395l-3.009,0.01
				l-0.963-0.625l0.221-0.6L50.928,43.013z"/>
		</g>
		<g>
			<polygon fill="#B7BDB1" points="46.761,40.433 46.817,39.683 47.015,39.472 52.309,39.306 51.911,40.101 52.026,40.476 			"/>
		</g>
		<g>
			<polygon fill="#DBDBBA" points="52.879,37.659 53.211,38.032 53.211,38.618 52.042,38.782 50.456,38.618 50.5,37.866 
				50.833,37.489 			"/>
		</g>
	</g>
	<g>
		<g>
			<polygon fill="#B1B1B1" points="29.339,27.765 29.358,27.366 29.442,26.968 27.761,26.94 27.468,27.31 27.488,27.792 			"/>
		</g>
		<g>
			<polygon fill="#B7BDB1" points="29.864,27.813 29.888,27.052 29.966,26.839 32.05,26.671 31.894,27.478 31.938,27.856 			"/>
		</g>
		<g>
			<g>
				<polygon fill="#B1B1B1" points="37.408,27.765 37.42,27.366 37.484,26.968 36.264,26.94 36.051,27.31 36.065,27.792 				"/>
			</g>
			<g>
				<polygon fill="#DBDBBA" points="35.59,28.015 34.266,27.897 32.845,27.896 32.604,27.101 32.716,26.544 34.924,26.894 
					35.588,26.856 				"/>
			</g>
			<g>
				<polygon fill="#B7BDB1" points="38.217,27.813 38.242,27.052 38.338,26.839 40.867,26.671 40.678,27.478 40.734,27.856 				"/>
			</g>
		</g>
	</g>
	<g>
		<path fill="#575757" d="M60.015,14.996l-0.203-0.039l0.018,1.406h0.756c0-0.084,0.043-1.203,0.043-1.203l-0.311-0.223
			L60.015,14.996z"/>
		<path fill="#575757" d="M61.646,14.996l-0.205-0.039l0.023,1.406h0.752c0-0.084,0.041-1.203,0.041-1.203l-0.307-0.223
			L61.646,14.996z"/>
		<path fill="#575757" d="M61.515,12.299l-0.307-0.223l-0.305,0.061l-0.203-0.041l0.02,1.404h0.754
			C61.474,13.418,61.515,12.299,61.515,12.299z"/>
		<path fill="#575757" d="M47.767,32.785c-1.455-3.439-4.771-3.725-4.804-3.725c-0.057-0.006-0.113,0.014-0.156,0.055
			c-0.043,0.039-0.066,0.094-0.066,0.15v8.544c0,0.115,0.092,0.207,0.207,0.207h5.541c0.002,0,0.006,0,0.01,0
			c0.113,0,0.207-0.092,0.207-0.207c0-0.027-0.006-0.053-0.014-0.078C48.659,37.253,48.462,34.422,47.767,32.785z M43.156,37.601
			v-8.095c0.732,0.129,3.085,0.74,4.228,3.441c0.605,1.428,0.826,3.905,0.883,4.653H43.156z"/>
		<path fill="#575757" d="M25.357,29.061c-0.035,0-3.349,0.285-4.806,3.725c-0.742,1.754-0.917,4.88-0.925,5.013
			c-0.002,0.057,0.018,0.113,0.057,0.154s0.094,0.064,0.15,0.064h5.538c0.115,0,0.209-0.092,0.209-0.207v-8.544
			c0-0.057-0.023-0.111-0.066-0.15C25.47,29.074,25.414,29.053,25.357,29.061z M25.164,37.601h-5.109
			c0.057-0.748,0.275-3.226,0.879-4.653c1.141-2.693,3.496-3.313,4.23-3.441V37.601z"/>
		<path fill="#575757" d="M114.575,13.396c-0.328-0.367-0.82-0.555-1.457-0.555H70.51c-0.639,0-1.129,0.188-1.458,0.555
			c-0.5,0.559-0.424,1.32-0.422,1.326v2.746h-5.156v-2.381c0-0.496-0.332-0.922-0.791-1.057v-1.672c0-0.391-0.211-0.75-0.539-0.947
			v-0.337c0-0.607-0.494-1.102-1.102-1.102s-1.1,0.494-1.1,1.102v0.333c-0.334,0.195-0.549,0.559-0.549,0.951v1.672
			c-0.459,0.135-0.791,0.561-0.791,1.057v2.381h-1.917c-0.637,0-1.127,0.188-1.455,0.555c-0.502,0.559-0.426,1.32-0.422,1.326v1.452
			h-37.91c-0.635,0-1.127,0.186-1.455,0.553c-0.502,0.559-0.426,1.322-0.424,1.326v23.03h0.52l-0.002-23.056
			c0-0.008-0.051-0.57,0.292-0.951c0.227-0.254,0.586-0.383,1.068-0.383h37.91v24.343h0.518l-0.002-26.342
			c0-0.006-0.051-0.572,0.295-0.955c0.229-0.25,0.586-0.377,1.066-0.377h12.464l-0.002-3.295c0-0.006-0.051-0.57,0.294-0.953
			c0.23-0.25,0.586-0.379,1.068-0.379h42.608c0.48,0,0.84,0.129,1.066,0.379c0.348,0.383,0.297,0.947,0.293,0.98v30.941h0.521
			l-0.002-30.912C114.999,14.717,115.077,13.955,114.575,13.396z M59.123,15.088c0-0.307,0.242-0.561,0.547-0.578l0.244-0.014
			v-2.137c0-0.244,0.15-0.457,0.379-0.543l0.17-0.064v-0.677c0-0.32,0.26-0.582,0.58-0.582s0.58,0.262,0.58,0.582v0.677l0.168,0.064
			c0.223,0.086,0.373,0.305,0.373,0.543v2.137l0.244,0.014c0.307,0.018,0.546,0.271,0.546,0.578v2.381h-3.832V15.088z"/>
		<g>
			<path fill="#575757" d="M68.462,36.909h-4.301c-0.141-0.002-0.357-0.02-0.555-0.155c-0.172-0.119-0.377-0.363-0.377-0.842v-6.113
				c0-0.738,0.48-1,0.896-1h4.301c0,0,0.002,0,0.006,0c0.445,0,0.927,0.262,0.927,1v6.113
				C69.359,36.648,68.876,36.909,68.462,36.909z M68.427,36.391l0.035,0.258v-0.258c0.248,0,0.377-0.162,0.377-0.479v-6.113
				c0-0.318-0.129-0.48-0.377-0.48l-4.301,0.002c-0.002,0-0.002,0-0.004,0c-0.283,0-0.408,0.16-0.408,0.479v6.113
				c0,0.203,0.051,0.344,0.154,0.414c0.086,0.059,0.189,0.064,0.223,0.064H68.427z"/>
		</g>
		<g>
			<rect x="91.447" y="28.826" fill="#575757" width="0.52" height="16.838"/>
		</g>
		<g>
			<path fill="#575757" d="M101.079,45.664h-0.52V30.127c0-0.344-0.086-0.598-0.254-0.752c-0.229-0.211-0.549-0.188-0.557-0.188
				l-16.064,0.002c-0.027-0.002-0.352-0.025-0.576,0.186c-0.17,0.154-0.254,0.408-0.254,0.752v15.537h-0.523V30.127
				c0-0.5,0.145-0.883,0.428-1.141c0.4-0.363,0.928-0.32,0.953-0.316h16.016c0,0,0.521-0.049,0.928,0.316
				c0.281,0.258,0.424,0.641,0.424,1.141V45.664z"/>
		</g>
		<g>
			<path fill="#575757" d="M39.941,45.664h-0.52V30.127c0-0.344-0.088-0.598-0.254-0.752c-0.229-0.211-0.553-0.188-0.557-0.188
				l-8.427,0.002c-0.025-0.002-0.352-0.025-0.578,0.186c-0.168,0.154-0.254,0.408-0.254,0.752v15.537h-0.52V30.127
				c0-0.5,0.145-0.883,0.428-1.141c0.4-0.363,0.926-0.32,0.949-0.316h8.38c-0.002,0,0.523-0.047,0.926,0.316
				c0.283,0.258,0.426,0.641,0.426,1.141V45.664z"/>
		</g>
	</g>
	<g>
		<g>
			<polygon fill="#B7BDB1" points="58.816,11.959 58.863,11.473 59.015,11.338 63.155,11.334 63.069,11.701 63.038,12.043 			"/>
		</g>
	</g>
	<g>
		<g>
			<polygon fill="#B7BDB1" points="58.035,14.59 58.102,14.102 58.309,13.971 63.94,13.859 63.794,14.246 63.825,14.645 			"/>
		</g>
	</g>
	<g>
		<path fill="#575757" d="M20.518,66.445h-0.781l-5.154-12.135h1.277l4.267,10.002l4.257-10.002h1.301L20.518,66.445z"/>
		<path fill="#575757" d="M30.364,56.154c-0.168,0.152-0.365,0.236-0.596,0.236c-0.234,0-0.432-0.084-0.6-0.236
			c-0.156-0.16-0.234-0.355-0.234-0.596c0-0.229,0.078-0.424,0.234-0.574c0.168-0.162,0.365-0.24,0.6-0.24
			c0.23,0,0.428,0.078,0.596,0.24c0.162,0.15,0.234,0.346,0.234,0.574C30.599,55.799,30.526,55.994,30.364,56.154z M29.241,66.445
			v-8.201h1.041v8.201H29.241z"/>
		<path fill="#575757" d="M37.566,66.539c-0.914-0.195-1.562-0.586-1.914-1.152c-0.381-0.557-0.555-1.313-0.555-2.271v-8.832h1.08
			v8.033c0,0.391,0.012,0.756,0.045,1.098c0.02,0.342,0.096,0.654,0.205,0.918c0.104,0.273,0.258,0.523,0.484,0.723
			c0.209,0.211,0.517,0.365,0.906,0.49L37.566,66.539z"/>
		<path fill="#575757" d="M44.367,66.539c-0.916-0.195-1.563-0.586-1.928-1.152c-0.367-0.557-0.543-1.313-0.543-2.271v-8.832h1.08
			v8.033c0,0.391,0.002,0.756,0.043,1.098c0.023,0.342,0.098,0.654,0.201,0.918c0.098,0.273,0.264,0.523,0.488,0.723
			c0.211,0.211,0.521,0.365,0.91,0.49L44.367,66.539z"/>
		<path fill="#575757" d="M53.694,58.615c0.375,0.283,0.646,0.635,0.804,1.064c0.146,0.426,0.225,0.963,0.225,1.584v5.182h-1.083
			v-1.078c-0.557,0.49-1.094,0.832-1.582,0.977c-0.488,0.172-0.943,0.236-1.367,0.236c-0.512,0-0.927-0.057-1.269-0.195
			c-0.342-0.137-0.635-0.299-0.836-0.51c-0.219-0.211-0.373-0.428-0.455-0.707c-0.086-0.27-0.125-0.523-0.125-0.801
			c0-0.52,0.098-0.953,0.318-1.309c0.219-0.352,0.512-0.645,0.875-0.881c0.369-0.23,0.779-0.404,1.248-0.502
			c0.447-0.105,0.928-0.154,1.42-0.154c0.111,0,0.217,0,0.328-0.012c0.107-0.008,0.215-0.008,0.352,0
			c0.131,0.012,0.287,0.02,0.457,0.025c0.178,0.018,0.389,0.025,0.637,0.043c0-0.018,0.004-0.084,0.014-0.195
			c0.008-0.115,0.004-0.182-0.014-0.203c0-0.389-0.061-0.719-0.166-1.012c-0.129-0.303-0.293-0.543-0.488-0.695
			c-0.195-0.174-0.445-0.281-0.748-0.34c-0.303-0.061-0.635-0.094-1.01-0.094c-0.324,0-0.707,0.064-1.141,0.195
			c-0.437,0.139-0.841,0.313-1.203,0.549l-0.186-1.008c0.857-0.518,1.783-0.756,2.779-0.756
			C52.442,58.02,53.18,58.215,53.694,58.615z M53.639,62.545c-0.436-0.045-0.857-0.082-1.289-0.088
			c-0.406,0-0.811,0.031-1.184,0.088c-0.232,0.035-0.459,0.084-0.691,0.162c-0.234,0.064-0.451,0.172-0.64,0.316
			c-0.186,0.117-0.342,0.293-0.463,0.492c-0.109,0.201-0.174,0.461-0.174,0.754c0,0.279,0.061,0.512,0.174,0.684
			c0.102,0.16,0.244,0.303,0.434,0.41c0.172,0.098,0.373,0.16,0.591,0.199c0.232,0.02,0.449,0.043,0.684,0.043
			c0.248,0,0.508-0.043,0.768-0.141c0.258-0.098,0.502-0.199,0.721-0.342c0.229-0.145,0.436-0.281,0.615-0.443
			c0.191-0.172,0.338-0.299,0.455-0.434V62.545z"/>
		<path fill="#575757" d="M70.906,66.445l-5.013-5.803v5.803h-1.154V54.311h1.154v5.746l4.976-5.746h1.477l-5.187,5.941l5.329,6.193
			H70.906z"/>
		<path fill="#575757" d="M81.044,58.615c0.371,0.283,0.664,0.635,0.799,1.064c0.158,0.426,0.242,0.963,0.242,1.584v5.182h-1.076
			v-1.078c-0.57,0.49-1.104,0.832-1.594,0.977c-0.488,0.172-0.938,0.236-1.371,0.236c-0.515,0-0.925-0.057-1.282-0.195
			c-0.314-0.137-0.619-0.299-0.814-0.51c-0.215-0.211-0.391-0.428-0.469-0.707c-0.084-0.27-0.117-0.523-0.117-0.801
			c0-0.52,0.109-0.953,0.313-1.309c0.227-0.352,0.516-0.645,0.873-0.881c0.377-0.23,0.779-0.404,1.268-0.502
			c0.45-0.105,0.921-0.154,1.417-0.154c0.111,0,0.217,0,0.328-0.012c0.098-0.008,0.207-0.008,0.344,0
			c0.137,0.012,0.275,0.02,0.449,0.025c0.195,0.018,0.391,0.025,0.656,0.043c0-0.018,0.002-0.084,0.008-0.195
			c0.008-0.115,0.006-0.182-0.008-0.203c0-0.389-0.07-0.719-0.18-1.012c-0.119-0.303-0.281-0.543-0.477-0.695
			c-0.195-0.174-0.467-0.281-0.768-0.34c-0.305-0.061-0.615-0.094-0.99-0.094c-0.326,0-0.709,0.064-1.157,0.195
			c-0.418,0.139-0.828,0.313-1.186,0.549l-0.195-1.008c0.867-0.518,1.773-0.756,2.784-0.756
			C79.788,58.02,80.548,58.215,81.044,58.615z M81.009,62.545c-0.457-0.045-0.863-0.082-1.293-0.088
			c-0.424,0-0.828,0.031-1.199,0.088c-0.227,0.035-0.443,0.084-0.694,0.162c-0.215,0.064-0.432,0.172-0.619,0.316
			c-0.184,0.117-0.363,0.293-0.475,0.492c-0.1,0.201-0.182,0.461-0.182,0.754c0,0.279,0.076,0.512,0.182,0.684
			c0.109,0.16,0.254,0.303,0.424,0.41c0.174,0.098,0.377,0.16,0.611,0.199c0.231,0.02,0.44,0.043,0.661,0.043
			c0.256,0,0.533-0.043,0.771-0.141c0.266-0.098,0.494-0.199,0.74-0.342c0.221-0.145,0.418-0.281,0.611-0.443
			c0.195-0.172,0.332-0.299,0.461-0.434V62.545z"/>
		<path fill="#575757" d="M88.813,66.539c-0.939-0.195-1.564-0.586-1.93-1.152c-0.391-0.557-0.565-1.313-0.565-2.271v-8.832h1.081
			v8.033c0,0.391,0.02,0.756,0.059,1.098c0.012,0.342,0.096,0.654,0.207,0.918c0.109,0.273,0.26,0.523,0.486,0.723
			c0.209,0.211,0.502,0.365,0.881,0.49L88.813,66.539z"/>
		<path fill="#575757" d="M103.678,58.746c0.391,0.424,0.586,0.977,0.586,1.67v6.029h-1.062v-5.508c0-0.639-0.109-1.092-0.348-1.355
			c-0.238-0.283-0.641-0.416-1.234-0.416c-0.266,0-0.494,0.039-0.746,0.131c-0.211,0.09-0.463,0.197-0.711,0.328
			c-0.207,0.133-0.438,0.279-0.67,0.445c-0.197,0.16-0.393,0.316-0.588,0.459v5.916h-1.066v-5.398c0-1.27-0.496-1.91-1.531-1.91
			c-0.408,0-0.832,0.141-1.238,0.387c-0.446,0.254-0.927,0.576-1.437,0.98v5.941h-1.086v-8.188h1.086v1.104
			c0.293-0.234,0.586-0.428,0.867-0.586c0.26-0.156,0.5-0.273,0.745-0.375c0.23-0.1,0.453-0.178,0.68-0.219
			c0.227-0.039,0.441-0.064,0.68-0.064c1.02,0,1.754,0.467,2.156,1.391c0.557-0.426,1.109-0.762,1.598-1.012
			c0.5-0.252,1.049-0.379,1.617-0.379C102.702,58.117,103.288,58.336,103.678,58.746z"/>
		<path fill="#575757" d="M113.552,58.615c0.391,0.283,0.637,0.635,0.781,1.064c0.17,0.426,0.238,0.963,0.238,1.584v5.182h-1.082
			v-1.078c-0.557,0.49-1.102,0.832-1.593,0.977c-0.49,0.172-0.934,0.236-1.371,0.236c-0.488,0-0.912-0.057-1.27-0.195
			c-0.326-0.137-0.602-0.299-0.818-0.51c-0.221-0.211-0.354-0.428-0.463-0.707c-0.086-0.27-0.119-0.523-0.119-0.801
			c0-0.52,0.107-0.953,0.314-1.309c0.209-0.352,0.502-0.645,0.891-0.881c0.363-0.23,0.781-0.404,1.236-0.502
			c0.445-0.105,0.924-0.154,1.422-0.154c0.102,0,0.217,0,0.324-0.012c0.109-0.008,0.228-0.008,0.339,0
			c0.143,0.012,0.279,0.02,0.475,0.025c0.182,0.018,0.391,0.025,0.633,0.043c0-0.018,0.004-0.084,0.012-0.195
			c0.014-0.115,0.004-0.182-0.012-0.203c0-0.389-0.047-0.719-0.166-1.012c-0.127-0.303-0.273-0.543-0.48-0.695
			c-0.201-0.174-0.463-0.281-0.767-0.34c-0.281-0.061-0.625-0.094-0.979-0.094c-0.352,0-0.727,0.064-1.17,0.195
			c-0.43,0.139-0.832,0.313-1.188,0.549l-0.18-1.008c0.844-0.518,1.758-0.756,2.768-0.756
			C112.271,58.02,113.03,58.215,113.552,58.615z M113.489,62.545c-0.438-0.045-0.854-0.082-1.289-0.088
			c-0.405,0-0.796,0.031-1.187,0.088c-0.215,0.035-0.453,0.084-0.695,0.162c-0.229,0.064-0.451,0.172-0.631,0.316
			c-0.189,0.117-0.346,0.293-0.451,0.492c-0.125,0.201-0.176,0.461-0.176,0.754c0,0.279,0.047,0.512,0.162,0.684
			c0.119,0.16,0.244,0.303,0.424,0.41c0.195,0.098,0.391,0.16,0.6,0.199c0.232,0.02,0.463,0.043,0.67,0.043
			c0.281,0,0.523-0.043,0.77-0.141c0.271-0.098,0.499-0.199,0.733-0.342c0.242-0.145,0.438-0.281,0.633-0.443
			c0.18-0.172,0.313-0.299,0.438-0.434V62.545z"/>
	</g>
	<line fill="none" stroke="#575757" stroke-width="0.5" stroke-miterlimit="10" x1="15.015" y1="45.711" x2="115.003" y2="45.711"/>
</g>
<g id="Layer_2">
</g>
</svg>
