<?xml version="1.0" encoding="utf-8"?>
<!-- Generator: Adobe Illustrator 16.0.0, SVG Export Plug-In . SVG Version: 6.00 Build 0)  -->
<!DOCTYPE svg PUBLIC "-//W3C//DTD SVG 1.1//EN" "http://www.w3.org/Graphics/SVG/1.1/DTD/svg11.dtd">
<svg version="1.1" id="Layer_1" xmlns="http://www.w3.org/2000/svg" xmlns:xlink="http://www.w3.org/1999/xlink" x="0px" y="0px"
	 width="25px" height="25px" viewBox="0 0 25 25" enable-background="new 0 0 25 25" xml:space="preserve">
<path fill-rule="evenodd" clip-rule="evenodd" fill="#575757" d="M1.004,12.518c1.625,0,3.207,0,4.806,0
	c0.086,2.101,0.886,3.852,2.521,5.185c1.264,1.029,2.732,1.506,4.355,1.471c3.56-0.077,6.476-2.908,6.572-6.651
	c1.562,0,3.124,0,4.718,0c0.007,0.078,0.021,0.163,0.021,0.248c0.002,2.745,0.008,5.488-0.001,8.233
	c-0.005,1.475-0.903,2.638-2.249,2.93c-0.231,0.05-0.475,0.063-0.713,0.063C15.388,24,9.739,24.001,4.091,23.998
	c-1.807-0.001-3.085-1.285-3.086-3.095c-0.001-2.675,0-5.349,0-8.023C1.004,12.771,1.004,12.663,1.004,12.518z"/>
<path fill-rule="evenodd" clip-rule="evenodd" fill="#575757" d="M1.004,10.571c0-0.152,0-0.271,0-0.389
	c0-2.045,0.034-4.092-0.01-6.137c-0.04-1.84,1.4-3.05,3.049-3.045C9.163,1.015,14.281,1.005,19.4,1.005
	c0.579,0,1.158-0.005,1.736,0.001c1.658,0.02,2.838,1.159,2.856,2.818c0.024,2.185,0.006,4.37,0.005,6.556
	c0,0.058-0.011,0.116-0.019,0.188c-0.102,0.007-0.188,0.018-0.275,0.018c-1.486,0.001-2.973-0.004-4.46,0.006
	c-0.221,0.001-0.304-0.077-0.371-0.278c-0.921-2.736-3.484-4.551-6.411-4.549c-2.794,0.001-5.369,1.86-6.265,4.538
	c-0.074,0.22-0.167,0.29-0.395,0.288c-1.496-0.01-2.993-0.005-4.49-0.006C1.224,10.586,1.136,10.578,1.004,10.571z M22.083,4.836
	c0-0.339,0-0.678,0-1.017c0-0.02,0-0.04-0.001-0.06c-0.018-0.538-0.301-0.829-0.84-0.836c-0.717-0.008-1.436-0.009-2.152,0
	c-0.539,0.006-0.83,0.298-0.836,0.838c-0.009,0.718-0.009,1.436,0,2.153c0.007,0.538,0.299,0.83,0.838,0.836
	c0.718,0.009,1.436,0.009,2.153,0c0.538-0.007,0.824-0.299,0.836-0.838C22.089,5.554,22.082,5.195,22.083,4.836z"/>
<path fill-rule="evenodd" clip-rule="evenodd" fill="#575757" d="M12.499,7.677c2.646,0.008,4.774,2.162,4.764,4.821
	c-0.01,2.622-2.173,4.764-4.803,4.759c-2.642-0.006-4.785-2.165-4.778-4.813C7.689,9.798,9.841,7.668,12.499,7.677z"/>
</svg>
