<?xml version="1.0" encoding="utf-8"?>
<!-- Generator: Adobe Illustrator 16.0.0, SVG Export Plug-In . SVG Version: 6.00 Build 0)  -->
<!DOCTYPE svg PUBLIC "-//W3C//DTD SVG 1.1//EN" "http://www.w3.org/Graphics/SVG/1.1/DTD/svg11.dtd">
<svg version="1.1" id="Layer_1" xmlns="http://www.w3.org/2000/svg" xmlns:xlink="http://www.w3.org/1999/xlink" x="0px" y="0px"
	 width="25px" height="25px" viewBox="0 0 25 25" enable-background="new 0 0 25 25" xml:space="preserve">
<g>
	<path fill-rule="evenodd" clip-rule="evenodd" fill="#575757" d="M15.408,24c-1.688,0-3.321,0-4.976,0c0-3.825,0-7.637,0-11.48
		c-0.903,0-1.786,0-2.686,0c0-1.294,0-2.556,0-3.839c0.886,0,1.761,0,2.678,0c0-0.127-0.001-0.232,0-0.337
		c0.018-1.078-0.017-2.159,0.064-3.231c0.175-2.312,1.498-3.713,3.805-3.974c1.186-0.134,2.39-0.099,3.586-0.132
		c0.438-0.012,0.876-0.002,1.333-0.002c0,1.28,0,2.541,0,3.835c-0.681,0-1.357-0.01-2.032,0.005
		c-0.308,0.007-0.618,0.042-0.919,0.103c-0.481,0.098-0.78,0.406-0.82,0.902c-0.038,0.466-0.035,0.937-0.042,1.405
		c-0.007,0.458-0.002,0.917-0.002,1.409c1.275,0,2.538,0,3.836,0c-0.153,1.298-0.304,2.559-0.455,3.84c-1.129,0-2.233,0-3.37,0
		C15.408,16.343,15.408,20.16,15.408,24z"/>
</g>
</svg>
