<svg xmlns="http://www.w3.org/2000/svg" width="195" height="70" viewBox="0 0 195 70"><path fill="#FFF" d="M94.222 16.298v-5.075c0-.862-.673-1.562-1.521-1.611V5.976a1.62 1.62 0 0 0-1.036-1.508v-.963a1.617 1.617 0 0 0-3.232 0v.959a1.613 1.613 0 0 0-1.053 1.512v3.636a1.613 1.613 0 0 0-1.521 1.611v5.075"/><path fill="#D1D9CB" d="M9.966 32.722c.734-.005 2.182.222 2.182.222l.385.467-1.008.854.464.644-4.939.015-1.583-1.029.364-.983 4.135-.19zm-1.174-2.74l-.137-1.339.416-1.152-3.673-.179-.625 1.578.486 1.273 1.385-.181z"/><path fill="#B1B1B1" d="M14.578 26.519c-.258 0-3.826-.129-3.826-.129l-.712.972.192.975-.126.648 4.472-.066v-2.4z"/><path fill="#DBDBBA" d="M10.811 29.638l-1.103.748v1.17l3.868.33 5.256-.33-.14-1.504-1.106-.751z"/><path fill="#D1D9CB" d="M113.217 19.399l-.151-.974.464-.844-4.09-.132-.693 1.154.538.928 1.544-.132z"/><path fill="#B1B1B1" d="M117.074 14.259c-.267 0-3.924-.132-3.924-.132l-.73.997.2.996-.135.664 4.589-.063v-2.462zm2.048 12.966c-.267 0-3.927-.136-3.927-.136l-.73.999.203.999-.135.665 4.589-.066v-2.461z"/><path fill="#D1D9CB" d="M121.911 20.977c.746-.008 2.231.227 2.231.227l.396.475-1.029.878.473.658-5.062.015-1.617-1.053.369-1.008 4.239-.192z"/><path fill="#B7BDB1" d="M114.327 19.236l.074-.983.264-.275 6.942-.221-.519 1.041.15.495zm-7.617 3.2l.095-1.262.335-.35 8.9-.282-.662 1.333.189.633zm11.939-6.142l.101-1.262.332-.354 8.9-.278-.665 1.336.193.634z"/><path fill="#DBDBBA" d="M118.992 26.189l.098-1.265.333-.35 8.899-.28-.662 1.337.191.632zM117 23.569l.565.631v.984l-1.965.279-2.668-.279.071-1.267.561-.63z"/><path fill="#B1B1B1" d="M101.614 56.14l.035-.842.145-.842-2.842-.063-.498.788.034 1.021z"/><path fill="#DBDBBA" d="M97.681 56.531l-2.256-.185-2.557.169-.412-1.425.19-.991 3.985.081 1.144-.064z"/><path fill="#B7BDB1" d="M103.237 56.663l.051-1.817.174-.506 4.654-.403-.35 1.924.102.907z"/><path fill="#B1B1B1" d="M101.642 36.238l.034-.736.142-.735-2.841-.054-.497.685.035.893z"/><path fill="#DBDBBA" d="M107.403 36.72l-2.071-.45h-2.611l.05-1.26.039-.723 3.807.34 1.101-.067z"/><path fill="#B7BDB1" d="M93.485 36.693l.045-1.587.156-.439 4.142-.351-.242 1.339.09.794z"/><path fill="#B1B1B1" d="M133.392 35.28l.06-.861.237-.861-4.776-.062-.833.799.058 1.05z"/><path fill="#B7BDB1" d="M135.021 35.39l.075-1.656.258-.456 6.903-.368-.518 1.748.149.824z"/><path fill="#B1B1B1" d="M158.922 35.28l.053-.861.224-.861-4.472-.062-.781.799.055 1.05z"/><path fill="#DBDBBA" d="M152.357 35.815l-4.055-.181-4.208-.067-.729-1.726.335-1.204 6.699.754 2.008-.079z"/><path fill="#B7BDB1" d="M161.249 35.39l.082-1.656.285-.456 7.589-.368-.567 1.748.161.824z"/><path fill="#DBDBBA" d="M190.538 62.635l-.229-1.455.691-1.262-6.114-.203-1.042 1.728.809 1.391 2.307-.199z"/><path fill="#D1D9CB" d="M184.712 63.218c.854-.009 2.549.259 2.549.259l.454.543-1.18 1.002.544.752-5.784.02-1.85-1.204.425-1.149 4.842-.223z"/><path fill="#B7BDB1" d="M176.698 58.26l.112-1.445.379-.402 10.174-.318-.759 1.522.216.728z"/><path fill="#DBDBBA" d="M188.461 52.929l.639.72v1.122l-2.243.319-3.05-.319.085-1.445.637-.722zM76.432 64.318l-.229-1.458.688-1.261-6.111-.201-1.042 1.726.81 1.391 2.306-.197z"/><path fill="#D1D9CB" d="M70.604 64.901c.857-.01 2.551.259 2.551.259l.454.541-1.18 1.001.543.755-5.784.02-1.85-1.205.422-1.151 4.844-.22z"/><path fill="#B7BDB1" d="M62.593 59.94l.111-1.441.379-.402 10.175-.322-.763 1.526.219.724z"/><path fill="#DBDBBA" d="M74.355 54.608l.639.722v1.122l-2.245.319-3.048-.319.082-1.444.641-.723z"/><path fill="#B1B1B1" d="M29.104 35.589l.039-.765.161-.766-3.232-.053-.565.709.04.929z"/><path fill="#B7BDB1" d="M30.114 35.683l.045-1.465.151-.407 4.005-.325-.298 1.549.084.73z"/><path fill="#B1B1B1" d="M44.616 35.589l.026-.765.119-.766-2.341-.053-.411.709.026.929z"/><path fill="#DBDBBA" d="M41.12 36.069l-2.544-.224-2.733-.005-.462-1.528.214-1.067 4.245.67 1.277-.071z"/><path fill="#B7BDB1" d="M46.17 35.683l.05-1.465.182-.407 4.866-.325-.364 1.549.105.73z"/><g fill="#575757"><path d="M88.073 11.048l-.393-.077.039 2.699h1.449c0-.157.079-2.309.079-2.309l-.589-.43-.585.117zm3.135 0l-.393-.077.042 2.699h1.445c0-.157.079-2.309.079-2.309l-.588-.43-.585.117zm-.251-5.188l-.588-.43-.586.117-.39-.077.037 2.7h1.448c0-.157.079-2.31.079-2.31zM64.528 45.242c-2.799-6.613-9.172-7.159-9.236-7.163a.397.397 0 0 0-.429.398v16.422a.4.4 0 0 0 .4.4h10.669a.4.4 0 0 0 .372-.547c-.056-.92-.441-6.363-1.776-9.51zm-8.865 9.257V38.937a10.903 10.903 0 0 1 8.129 6.618c1.164 2.743 1.588 7.508 1.693 8.944h-9.822zm-34.214-16.42c-.064.004-6.438.55-9.236 7.163-1.428 3.372-1.767 9.382-1.781 9.636a.404.404 0 0 0 .109.297.405.405 0 0 0 .291.125h10.646a.4.4 0 0 0 .4-.4V38.478a.397.397 0 0 0-.128-.293.383.383 0 0 0-.301-.106zm-.371 16.42h-9.819c.105-1.437.529-6.201 1.69-8.944a10.93 10.93 0 0 1 8.129-6.617v15.561z"/><path d="M192.954 7.971c-.635-.707-1.576-1.065-2.799-1.065h-81.911c-1.223 0-2.164.358-2.799 1.065-.963 1.073-.817 2.539-.813 2.547v5.28h-9.91v-4.575c0-.956-.638-1.771-1.521-2.029V5.976a2.13 2.13 0 0 0-1.036-1.818v-.653a2.117 2.117 0 0 0-4.232 0v.645a2.126 2.126 0 0 0-1.053 1.826v3.218a2.116 2.116 0 0 0-1.521 2.029v4.575h-3.686c-1.223 0-2.164.358-2.799 1.065-.963 1.073-.817 2.539-.813 2.547v2.795H5.191c-1.223 0-2.164.358-2.799 1.065-.963 1.073-.817 2.539-.813 2.547v44.271h1l-.003-44.323c-.001-.011-.097-1.093.561-1.826.437-.486 1.128-.733 2.055-.733h72.87V70h1l-.002-50.641c-.001-.011-.101-1.098.565-1.833.437-.482 1.126-.727 2.049-.727h23.958l-.003-6.332c-.001-.011-.101-1.098.566-1.833.437-.482 1.126-.727 2.049-.727h81.911c.923 0 1.612.245 2.049.727.667.736.567 1.823.563 1.885V70h1l-.003-59.428c.007-.062.153-1.528-.81-2.601zM86.359 11.223c0-.589.461-1.078 1.049-1.112l.471-.027V5.976c0-.469.286-.878.728-1.043l.325-.121V3.505a1.116 1.116 0 0 1 2.232 0v1.306l.32.124c.428.165.716.583.716 1.041v4.108l.471.027a1.114 1.114 0 0 1 1.049 1.112v4.575h-7.362v-4.575z"/><path d="M104.31 53.169l-8.268-.002c-.268-.001-.686-.037-1.064-.299-.332-.229-.728-.697-.728-1.618V39.497c0-1.417.929-1.919 1.724-1.919l8.268.002h.006c.861 0 1.785.504 1.785 1.917V51.25c0 1.417-.929 1.919-1.723 1.919zm-.068-1.002l.067.502v-.5c.48 0 .724-.309.724-.919V39.497c0-.61-.243-.919-.724-.919l-8.268.002h-.006c-.543 0-.785.31-.785.917V51.25c0 .392.1.66.297.797a.803.803 0 0 0 .427.122l8.268-.002zm44.25-14.539h1V70h-1z"/><path d="M167.011 70h-1V40.133c0-.662-.164-1.149-.486-1.447-.438-.403-1.059-.359-1.068-.357l-30.884.002c-.051-.007-.674-.048-1.112.355-.322.298-.486.785-.486 1.447V70h-1V40.133c0-.961.276-1.698.821-2.193.77-.699 1.782-.613 1.825-.607l30.792-.002c-.006 0 1.007-.091 1.777.609.545.495.821 1.232.821 2.193V70zM49.486 70h-1V40.133c0-.662-.164-1.149-.486-1.447-.438-.403-1.063-.359-1.068-.357l-16.201.001c-.051-.007-.674-.048-1.112.355-.323.298-.486.785-.486 1.447V70h-1V40.133c0-.961.276-1.698.821-2.193.77-.699 1.781-.613 1.826-.607l16.108-.002c-.004.001 1.007-.09 1.778.609.544.495.821 1.232.821 2.193V70z"/></g><path fill="#B7BDB1" d="M85.77 5.208l.089-.934.293-.258 7.958-.011-.166.71-.057.656zm-1.501 5.055l.124-.936.398-.257 10.829-.207-.28.741.056.766z"/></svg>