<svg xmlns="http://www.w3.org/2000/svg" width="130" height="100" viewBox="0 0 130 100"><path fill="#FFF" stroke="#575757" stroke-width=".25" stroke-linecap="round" stroke-linejoin="round" stroke-miterlimit="10" d="M64.995 97.619L123 68.646V9.381a7.001 7.001 0 0 0-7.001-7.001H14.001A7.002 7.002 0 0 0 7 9.382v59.265l57.995 28.972h.014"/><path fill="#FFF" d="M63.214 17.73v-2.643a.842.842 0 0 0-.791-.838v-1.891a.847.847 0 0 0-.539-.785v-.499a.84.84 0 0 0-1.682 0v.495a.845.845 0 0 0-.549.789v1.891a.841.841 0 0 0-.791.838v2.643"/><path fill="#D1D9CB" d="M19.383 26.274c.381-.004 1.134.113 1.134.113l.201.244-.523.445.24.332-2.57.012-.824-.537.191-.512 2.151-.097zm-.613-1.427l-.068-.696.215-.599-1.911-.094-.326.822.254.662.721-.095z"/><path fill="#B1B1B1" d="M21.781 23.046c-.133 0-1.988-.068-1.988-.068l-.371.506.1.508-.068.34 2.328-.035v-1.251z"/><path fill="#DBDBBA" d="M19.821 24.669l-.572.389v.607l2.011.174 2.734-.174-.072-.781-.574-.391z"/><path fill="#D1D9CB" d="M73.096 19.342l-.078-.506.24-.438-2.129-.07-.359.6.281.482.803-.068z"/><path fill="#B1B1B1" d="M75.104 16.668c-.141 0-2.047-.066-2.047-.066l-.375.518.102.518-.07.346 2.391-.033v-1.283zm1.062 6.745c-.137 0-2.041-.07-2.041-.07l-.381.52.107.52-.072.346 2.387-.035v-1.281z"/><path fill="#D1D9CB" d="M77.619 20.163c.386-.006 1.159.117 1.159.117l.207.248-.539.457.248.342-2.632.008-.842-.549.193-.525 2.206-.098z"/><path fill="#B7BDB1" d="M73.676 19.258l.037-.512.139-.144 3.611-.114-.272.541.079.256zm-3.967 1.663l.047-.656.176-.182 4.632-.146-.343.693.099.33zm6.213-3.194l.051-.657.173-.183 4.63-.147-.345.698.097.328z"/><path fill="#DBDBBA" d="M76.1 22.874l.05-.66.174-.178 4.628-.146-.344.693.098.332zm-1.037-1.363l.294.33v.512l-1.023.144-1.389-.144.037-.659.293-.328z"/><path fill="#B1B1B1" d="M67.06 38.454l.017-.437.074-.438-1.476-.035-.26.41.018.535z"/><path fill="#DBDBBA" d="M65.015 38.659l-1.176-.097-1.33.087-.215-.742.1-.513 2.074.041.595-.034z"/><path fill="#B7BDB1" d="M67.901 38.728l.028-.948.093-.261 2.417-.211-.181 1.002.056.472z"/><path fill="#B1B1B1" d="M67.073 28.104l.02-.384.074-.383-1.48-.027-.258.355.017.465z"/><path fill="#DBDBBA" d="M70.072 28.352l-1.079-.234h-1.359l.025-.656.024-.373 1.975.176.578-.036z"/><path fill="#B7BDB1" d="M62.832 28.338l.022-.825.081-.229 2.154-.18-.125.696.047.412z"/><path fill="#B1B1B1" d="M83.591 27.604l.031-.449.123-.449-2.486-.031-.432.416.029.547z"/><path fill="#B7BDB1" d="M84.438 27.661l.04-.861.134-.238 3.591-.19-.271.908.078.428z"/><path fill="#B1B1B1" d="M96.87 27.604l.027-.449.118-.449-2.327-.031-.405.416.028.547z"/><path fill="#DBDBBA" d="M93.459 27.882l-2.109-.094-2.19-.035-.383-.899.176-.625 3.485.391 1.044-.039z"/><path fill="#B7BDB1" d="M98.081 27.661l.043-.861.148-.238 3.95-.19-.295.908.084.428z"/><path fill="#DBDBBA" d="M113.319 41.833l-.119-.756.358-.656-3.181-.106-.541.899.422.724 1.199-.105z"/><path fill="#D1D9CB" d="M110.287 42.136c.445-.002 1.326.137 1.326.137l.236.283-.615.52.287.391-3.012.012-.961-.627.219-.6 2.52-.116z"/><path fill="#B7BDB1" d="M106.119 39.558l.057-.752.197-.209 5.297-.166-.399.791.114.381z"/><path fill="#DBDBBA" d="M112.237 36.785l.332.374v.582l-1.165.166-1.588-.166.047-.75.332-.374zM53.958 42.71l-.118-.76.36-.654-3.182-.106-.541.899.422.723 1.199-.102z"/><path fill="#D1D9CB" d="M50.928 43.013c.445-.004 1.326.135 1.326.135l.236.281-.613.52.283.395-3.009.01-.963-.625.221-.6 2.519-.116z"/><path fill="#B7BDB1" d="M46.761 40.433l.056-.75.198-.211 5.294-.166-.398.795.115.375z"/><path fill="#DBDBBA" d="M52.879 37.659l.332.373v.586l-1.169.164-1.586-.164.044-.752.333-.377z"/><path fill="#B1B1B1" d="M29.339 27.765l.019-.399.084-.398-1.681-.028-.293.37.02.482z"/><path fill="#B7BDB1" d="M29.864 27.813l.024-.761.078-.213 2.084-.168-.156.807.044.378z"/><path fill="#B1B1B1" d="M37.408 27.765l.012-.399.064-.398-1.22-.028-.213.37.014.482z"/><path fill="#DBDBBA" d="M35.59 28.015l-1.324-.118-1.421-.001-.241-.795.112-.557 2.208.35.664-.038z"/><path fill="#B7BDB1" d="M38.217 27.813l.025-.761.096-.213 2.529-.168-.189.807.056.378z"/><g fill="#575757"><path d="M60.015 14.996l-.203-.039.018 1.406h.756c0-.084.043-1.203.043-1.203l-.311-.223-.303.059zm1.631 0l-.205-.039.023 1.406h.752c0-.084.041-1.203.041-1.203l-.307-.223-.304.059zm-.131-2.697l-.307-.223-.305.061-.203-.041.02 1.404h.754c0-.082.041-1.201.041-1.201zM47.767 32.785c-1.455-3.439-4.771-3.725-4.804-3.725a.195.195 0 0 0-.156.055.202.202 0 0 0-.066.15v8.544c0 .115.092.207.207.207h5.551a.207.207 0 0 0 .193-.285c-.033-.478-.23-3.309-.925-4.946zm-4.611 4.816v-8.095c.732.129 3.085.74 4.228 3.441.605 1.428.826 3.905.883 4.653h-5.111zm-17.799-8.54c-.035 0-3.349.285-4.806 3.725-.742 1.754-.917 4.88-.925 5.013a.208.208 0 0 0 .207.218h5.538a.208.208 0 0 0 .209-.207v-8.544a.2.2 0 0 0-.066-.15.189.189 0 0 0-.157-.055zm-.193 8.54h-5.109c.057-.748.275-3.226.879-4.653a5.686 5.686 0 0 1 4.23-3.441v8.094z"/><path d="M114.575 13.396c-.328-.367-.82-.555-1.457-.555H70.51c-.639 0-1.129.188-1.458.555-.5.559-.424 1.32-.422 1.326v2.746h-5.156v-2.381c0-.496-.332-.922-.791-1.057v-1.672c0-.391-.211-.75-.539-.947v-.337a1.101 1.101 0 0 0-2.202 0v.333a1.11 1.11 0 0 0-.549.951v1.672a1.105 1.105 0 0 0-.791 1.057v2.381h-1.917c-.637 0-1.127.188-1.455.555-.502.559-.426 1.32-.422 1.326v1.452h-37.91c-.635 0-1.127.186-1.455.553-.502.559-.426 1.322-.424 1.326v23.03h.52l-.002-23.056c0-.008-.051-.57.292-.951.227-.254.586-.383 1.068-.383h37.91v24.343h.518l-.002-26.342c0-.006-.051-.572.295-.955.229-.25.586-.377 1.066-.377h12.464l-.002-3.295c0-.006-.051-.57.294-.953.23-.25.586-.379 1.068-.379h42.608c.48 0 .84.129 1.066.379.348.383.297.947.293.98v30.941h.521l-.002-30.912c.005-.033.083-.795-.419-1.354zm-55.452 1.692a.58.58 0 0 1 .547-.578l.244-.014v-2.137c0-.244.15-.457.379-.543l.17-.064v-.677c0-.32.26-.582.58-.582s.58.262.58.582v.677l.168.064a.587.587 0 0 1 .373.543v2.137l.244.014a.579.579 0 0 1 .546.578v2.381h-3.832v-2.381z"/><path d="M68.462 36.909h-4.301a.99.99 0 0 1-.555-.155c-.172-.119-.377-.363-.377-.842v-6.113c0-.738.48-1 .896-1h4.307c.445 0 .927.262.927 1v6.113c0 .736-.483.997-.897.997zm-.035-.518l.035.258v-.258c.248 0 .377-.162.377-.479v-6.113c0-.318-.129-.48-.377-.48l-4.301.002h-.004c-.283 0-.408.16-.408.479v6.113c0 .203.051.344.154.414a.413.413 0 0 0 .223.064h4.301zm23.02-7.565h.52v16.838h-.52z"/><path d="M101.079 45.664h-.52V30.127c0-.344-.086-.598-.254-.752-.229-.211-.549-.188-.557-.188l-16.064.002c-.027-.002-.352-.025-.576.186-.17.154-.254.408-.254.752v15.537h-.523V30.127c0-.5.145-.883.428-1.141.4-.363.928-.32.953-.316h16.016s.521-.049.928.316c.281.258.424.641.424 1.141v15.537zm-61.138 0h-.52V30.127c0-.344-.088-.598-.254-.752-.229-.211-.553-.188-.557-.188l-8.427.002c-.025-.002-.352-.025-.578.186-.168.154-.254.408-.254.752v15.537h-.52V30.127c0-.5.145-.883.428-1.141.4-.363.926-.32.949-.316h8.38c-.002 0 .523-.047.926.316.283.258.426.641.426 1.141v15.537z"/></g><path fill="#B7BDB1" d="M58.816 11.959l.047-.486.152-.135 4.14-.004-.086.367-.031.342zm-.781 2.631l.067-.488.207-.131 5.631-.112-.146.387.031.399z"/><path d="M20.518 66.445h-.781L14.583 54.31h1.277l4.267 10.002 4.257-10.002h1.301l-5.167 12.135zm9.846-10.291a.863.863 0 0 1-.596.236.868.868 0 0 1-.6-.236.814.814 0 0 1-.234-.596c0-.229.078-.424.234-.574a.827.827 0 0 1 .6-.24c.23 0 .428.078.596.24.162.15.234.346.234.574a.787.787 0 0 1-.234.596zm-1.123 10.291v-8.201h1.041v8.201h-1.041zm8.325.094c-.914-.195-1.562-.586-1.914-1.152-.381-.557-.555-1.313-.555-2.271v-8.832h1.08v8.033c0 .391.012.756.045 1.098.02.342.096.654.205.918.104.273.258.523.484.723.209.211.517.365.906.49l-.251.993zm6.801 0c-.916-.195-1.563-.586-1.928-1.152-.367-.557-.543-1.313-.543-2.271v-8.832h1.08v8.033c0 .391.002.756.043 1.098.023.342.098.654.201.918.098.273.264.523.488.723.211.211.521.365.91.49l-.251.993zm9.327-7.924c.375.283.646.635.804 1.064.146.426.225.963.225 1.584v5.182H53.64v-1.078c-.557.49-1.094.832-1.582.977a4.064 4.064 0 0 1-1.367.236c-.512 0-.927-.057-1.269-.195-.342-.137-.635-.299-.836-.51-.219-.211-.373-.428-.455-.707a2.557 2.557 0 0 1-.125-.801c0-.52.098-.953.318-1.309.219-.352.512-.645.875-.881.369-.23.779-.404 1.248-.502a6.244 6.244 0 0 1 1.42-.154c.111 0 .217 0 .328-.012.107-.008.215-.008.352 0 .131.012.287.02.457.025.178.018.389.025.637.043 0-.018.004-.084.014-.195.008-.115.004-.182-.014-.203 0-.389-.061-.719-.166-1.012-.129-.303-.293-.543-.488-.695-.195-.174-.445-.281-.748-.34a5.089 5.089 0 0 0-1.01-.094c-.324 0-.707.064-1.141.195a4.904 4.904 0 0 0-1.203.549l-.186-1.008c.857-.518 1.783-.756 2.779-.756.964.002 1.702.197 2.216.597zm-.055 3.93a14.408 14.408 0 0 0-1.289-.088c-.406 0-.811.031-1.184.088a4.018 4.018 0 0 0-.691.162 1.87 1.87 0 0 0-.64.316 1.489 1.489 0 0 0-.463.492 1.59 1.59 0 0 0-.174.754c0 .279.061.512.174.684.102.16.244.303.434.41.172.098.373.16.591.199.232.02.449.043.684.043.248 0 .508-.043.768-.141a3.71 3.71 0 0 0 .721-.342c.229-.145.436-.281.615-.443.191-.172.338-.299.455-.434v-1.7zm17.267 3.9l-5.013-5.803v5.803h-1.154V54.311h1.154v5.746l4.976-5.746h1.477l-5.187 5.941 5.329 6.193h-1.582zm10.138-7.83c.371.283.664.635.799 1.064.158.426.242.963.242 1.584v5.182h-1.076v-1.078c-.57.49-1.104.832-1.594.977a4.05 4.05 0 0 1-1.371.236c-.515 0-.925-.057-1.282-.195-.314-.137-.619-.299-.814-.51-.215-.211-.391-.428-.469-.707a2.608 2.608 0 0 1-.117-.801c0-.52.109-.953.313-1.309a2.98 2.98 0 0 1 .873-.881c.377-.23.779-.404 1.268-.502.45-.105.921-.154 1.417-.154.111 0 .217 0 .328-.012a2.45 2.45 0 0 1 .344 0c.137.012.275.02.449.025.195.018.391.025.656.043 0-.018.002-.084.008-.195.008-.115.006-.182-.008-.203 0-.389-.07-.719-.18-1.012-.119-.303-.281-.543-.477-.695-.195-.174-.467-.281-.768-.34a4.896 4.896 0 0 0-.99-.094c-.326 0-.709.064-1.157.195a5.049 5.049 0 0 0-1.186.549l-.195-1.008a5.26 5.26 0 0 1 2.784-.756c.947.002 1.707.197 2.203.597zm-.035 3.93a15.103 15.103 0 0 0-1.293-.088c-.424 0-.828.031-1.199.088a4.65 4.65 0 0 0-.694.162 1.933 1.933 0 0 0-.619.316 1.454 1.454 0 0 0-.475.492c-.1.201-.182.461-.182.754 0 .279.076.512.182.684.109.16.254.303.424.41.174.098.377.16.611.199.231.02.44.043.661.043.256 0 .533-.043.771-.141.266-.098.494-.199.74-.342.221-.145.418-.281.611-.443a7.25 7.25 0 0 0 .461-.434v-1.7zm7.804 3.994c-.939-.195-1.564-.586-1.93-1.152-.391-.557-.565-1.313-.565-2.271v-8.832h1.081v8.033c0 .391.02.756.059 1.098.012.342.096.654.207.918.109.273.26.523.486.723.209.211.502.365.881.49l-.219.993zm14.865-7.793c.391.424.586.977.586 1.67v6.029h-1.062v-5.508c0-.639-.109-1.092-.348-1.355-.238-.283-.641-.416-1.234-.416-.266 0-.494.039-.746.131-.211.09-.463.197-.711.328-.207.133-.438.279-.67.445-.197.16-.393.316-.588.459v5.916h-1.066v-5.398c0-1.27-.496-1.91-1.531-1.91-.408 0-.832.141-1.238.387-.446.254-.927.576-1.437.98v5.941h-1.086v-8.188h1.086v1.104c.293-.234.586-.428.867-.586.26-.156.5-.273.745-.375.23-.1.453-.178.68-.219a3.9 3.9 0 0 1 .68-.064c1.02 0 1.754.467 2.156 1.391a10.602 10.602 0 0 1 1.598-1.012 3.573 3.573 0 0 1 1.617-.379c.726 0 1.312.219 1.702.629zm9.874-.131c.391.283.637.635.781 1.064.17.426.238.963.238 1.584v5.182h-1.082v-1.078c-.557.49-1.102.832-1.593.977-.49.172-.934.236-1.371.236-.488 0-.912-.057-1.27-.195-.326-.137-.602-.299-.818-.51a1.843 1.843 0 0 1-.463-.707 2.55 2.55 0 0 1-.119-.801c0-.52.107-.953.314-1.309a2.54 2.54 0 0 1 .891-.881c.363-.23.781-.404 1.236-.502a6.212 6.212 0 0 1 1.422-.154c.102 0 .217 0 .324-.012.109-.008.228-.008.339 0 .143.012.279.02.475.025.182.018.391.025.633.043 0-.018.004-.084.012-.195.014-.115.004-.182-.012-.203 0-.389-.047-.719-.166-1.012-.127-.303-.273-.543-.48-.695-.201-.174-.463-.281-.767-.34a4.763 4.763 0 0 0-.979-.094c-.352 0-.727.064-1.17.195-.43.139-.832.313-1.188.549l-.18-1.008c.844-.518 1.758-.756 2.768-.756.944.002 1.703.197 2.225.597zm-.063 3.93a14.383 14.383 0 0 0-1.289-.088 8.17 8.17 0 0 0-1.187.088 4.749 4.749 0 0 0-.695.162 1.793 1.793 0 0 0-.631.316 1.288 1.288 0 0 0-.451.492c-.125.201-.176.461-.176.754 0 .279.047.512.162.684.119.16.244.303.424.41.195.098.391.16.6.199.232.02.463.043.67.043.281 0 .523-.043.77-.141.271-.098.499-.199.733-.342.242-.145.438-.281.633-.443.18-.172.313-.299.438-.434v-1.7z" fill="#575757"/><path fill="none" stroke="#575757" stroke-width=".5" stroke-miterlimit="10" d="M15.015 45.711h99.988"/></svg>