<svg xmlns="http://www.w3.org/2000/svg" width="25" height="25" viewBox="0 0 25 25"><path fill-rule="evenodd" clip-rule="evenodd" fill="#575757" d="M15.408 24h-4.976V12.52H7.746V8.681h2.678v-.337c.018-1.078-.017-2.159.064-3.231.175-2.312 1.498-3.713 3.805-3.974 1.186-.134 2.39-.099 3.586-.132.438-.012.876-.002 1.333-.002V4.84c-.681 0-1.357-.01-2.032.005a5.246 5.246 0 0 0-.919.103c-.481.098-.78.406-.82.902-.038.466-.035.937-.042 1.405-.007.458-.002.917-.002 1.409h3.836l-.455 3.84h-3.37V24z"/></svg>