<svg xmlns="http://www.w3.org/2000/svg" width="180" height="30" viewBox="0 0 180 30"><path d="M10.673 25.848H9.272L0 3.96h2.294l7.677 18.033 7.68-18.033h2.325l-9.303 21.888zM28.401 7.289a1.44 1.44 0 0 1-1.066.432 1.44 1.44 0 0 1-1.067-.432 1.44 1.44 0 0 1-.43-1.066c0-.404.143-.749.43-1.036a1.449 1.449 0 0 1 1.067-.429c.424 0 .78.143 1.066.429.287.287.431.632.431 1.036 0 .425-.144.78-.431 1.066zm-2.022 18.559V11.064h1.879v14.783h-1.879zm15.006.16c-1.657-.362-2.815-1.052-3.473-2.071s-.987-2.39-.987-4.109V3.929h1.943v14.464c0 .702.026 1.359.08 1.977.053.614.175 1.167.367 1.656.19.489.483.919.875 1.29.393.372.941.664 1.64.876l-.445 1.816zm12.233 0c-1.657-.362-2.815-1.052-3.473-2.071-.659-1.02-.987-2.39-.987-4.109V3.929h1.943v14.464c0 .702.026 1.359.081 1.977.053.614.174 1.167.366 1.656.191.489.483.919.875 1.29.393.372.94.664 1.641.876l-.446 1.816zm16.789-14.274c.68.51 1.158 1.146 1.434 1.912s.414 1.721.414 2.867v9.335h-1.943v-1.976c-1.02.913-1.97 1.509-2.852 1.785-.88.275-1.703.414-2.469.414-.913 0-1.678-.117-2.294-.352-.616-.232-1.115-.536-1.498-.906a3.175 3.175 0 0 1-.812-1.275 4.557 4.557 0 0 1-.24-1.449c0-.935.197-1.72.59-2.356a4.843 4.843 0 0 1 1.577-1.578 7.14 7.14 0 0 1 2.23-.908c.829-.19 1.689-.286 2.581-.286.191 0 .381-.005.573-.017.191-.011.403-.011.637 0 .233.012.51.026.828.048.319.021.701.054 1.147.095 0-.041.005-.164.015-.365.011-.202.005-.324-.015-.367 0-.7-.106-1.316-.318-1.847-.213-.532-.5-.946-.86-1.243-.361-.298-.813-.499-1.354-.606a9.48 9.48 0 0 0-1.8-.158c-.594 0-1.284.117-2.071.35a8.436 8.436 0 0 0-2.167.987l-.318-1.817a9.578 9.578 0 0 1 5.002-1.369c1.72-.001 3.048.36 3.983 1.082zm-.095 7.073a25.206 25.206 0 0 0-2.31-.144c-.754-.01-1.472.038-2.15.144-.404.065-.818.16-1.243.288a3.76 3.76 0 0 0-1.146.558c-.34.242-.617.546-.829.908-.212.36-.318.807-.318 1.338 0 .509.102.918.303 1.226.201.309.462.552.78.733.318.181.68.303 1.083.366.403.063.807.095 1.211.095.466 0 .928-.085 1.386-.254a8.193 8.193 0 0 0 1.306-.622 7.34 7.34 0 0 0 1.115-.797c.329-.285.6-.546.813-.78v-3.059zm31.094 7.041l-9.017-10.48v10.48h-2.103V3.96h2.103v10.355l8.92-10.355h2.646l-9.272 10.704 9.559 11.183h-2.836zm18.254-14.114c.68.51 1.157 1.146 1.434 1.912s.414 1.721.414 2.867v9.335h-1.943v-1.976c-1.02.913-1.97 1.509-2.852 1.785-.881.275-1.704.414-2.469.414-.913 0-1.678-.117-2.294-.352-.616-.232-1.115-.536-1.498-.906a3.175 3.175 0 0 1-.812-1.275 4.557 4.557 0 0 1-.24-1.449c0-.935.197-1.72.59-2.356a4.843 4.843 0 0 1 1.577-1.578c.658-.415 1.402-.718 2.23-.908s1.689-.286 2.581-.286c.19 0 .381-.005.573-.017.19-.011.402-.011.637 0 .233.012.51.026.828.048s.701.054 1.147.095c0-.041.005-.164.016-.365.011-.202.005-.324-.016-.367 0-.7-.106-1.316-.318-1.847-.213-.532-.5-.946-.86-1.243-.361-.298-.813-.499-1.354-.606a9.48 9.48 0 0 0-1.8-.158c-.595 0-1.285.117-2.071.35a8.43 8.43 0 0 0-2.166.987l-.318-1.817a9.576 9.576 0 0 1 5.002-1.369c1.719-.001 3.048.36 3.982 1.082zm-.096 7.073a25.228 25.228 0 0 0-2.311-.144c-.754-.01-1.472.038-2.149.144-.404.065-.817.16-1.243.288a3.748 3.748 0 0 0-1.146.558 2.917 2.917 0 0 0-.829.908c-.212.36-.318.807-.318 1.338 0 .509.102.918.304 1.226.2.309.462.552.78.733.318.181.68.303 1.083.366.402.063.807.095 1.211.095.467 0 .928-.085 1.386-.254a8.193 8.193 0 0 0 1.306-.622 7.34 7.34 0 0 0 1.115-.797c.328-.285.6-.546.813-.78v-3.059zm14.05 7.201c-1.656-.362-2.815-1.052-3.473-2.071-.658-1.02-.988-2.39-.988-4.109V3.929h1.943v14.464c0 .702.026 1.359.08 1.977.054.614.175 1.167.366 1.656s.483.919.875 1.29c.394.372.941.664 1.642.876l-.445 1.816zm26.763-14.035c.7.755 1.051 1.759 1.051 3.01v10.865h-1.879v-9.939c0-1.148-.216-1.964-.641-2.454-.427-.489-1.173-.732-2.24-.732-.447 0-.885.079-1.312.238s-.848.356-1.263.59c-.417.233-.821.499-1.216.795-.395.299-.763.575-1.104.829v10.673h-1.881V16.1c0-2.273-.923-3.409-2.771-3.409-.722 0-1.472.223-2.246.669-.775.445-1.641 1.04-2.597 1.784v10.704h-1.942v-14.75h1.942v1.976a17.18 17.18 0 0 1 1.574-1.053c.477-.275.929-.504 1.352-.684a5.93 5.93 0 0 1 2.45-.493c1.866 0 3.159.828 3.881 2.485 1.018-.765 1.977-1.37 2.878-1.816a6.454 6.454 0 0 1 2.91-.669c1.337-.002 2.355.376 3.054 1.129zm17.775-.239c.681.51 1.157 1.146 1.434 1.912s.414 1.721.414 2.867v9.335h-1.943v-1.976c-1.02.913-1.971 1.509-2.853 1.785-.88.275-1.703.414-2.468.414-.914 0-1.679-.117-2.295-.352-.615-.232-1.114-.536-1.497-.906a3.162 3.162 0 0 1-.811-1.275 4.53 4.53 0 0 1-.24-1.449c0-.935.197-1.72.59-2.356a4.833 4.833 0 0 1 1.577-1.578 7.124 7.124 0 0 1 2.229-.908c.829-.19 1.689-.286 2.581-.286.191 0 .382-.005.573-.017.19-.011.402-.011.638 0 .233.012.509.026.827.048s.701.054 1.147.095c0-.041.006-.164.016-.365.011-.202.006-.324-.016-.367 0-.7-.105-1.316-.318-1.847-.213-.532-.499-.946-.859-1.243-.362-.298-.813-.499-1.356-.606a9.466 9.466 0 0 0-1.8-.158c-.594 0-1.284.117-2.069.35a8.42 8.42 0 0 0-2.167.987l-.319-1.817a9.584 9.584 0 0 1 5.003-1.369c1.72-.001 3.048.36 3.982 1.082zm-.095 7.073a25.228 25.228 0 0 0-2.311-.144c-.754-.01-1.471.038-2.148.144-.405.065-.818.16-1.244.288a3.76 3.76 0 0 0-1.146.558 2.893 2.893 0 0 0-.829.908c-.213.36-.318.807-.318 1.338 0 .509.101.918.303 1.226.2.309.462.552.78.733.318.181.679.303 1.084.366a7.82 7.82 0 0 0 1.21.095c.466 0 .928-.085 1.387-.254a8.183 8.183 0 0 0 1.305-.622 7.29 7.29 0 0 0 1.115-.797c.329-.285.6-.546.813-.78v-3.059z" fill="#575757"/></svg>